HIERARCHY
ROOT Hips
{
	OFFSET 0.000000 0.000000 0.000000
	CHANNELS 6 Xposition Yposition Zposition Zrotation Yrotation Xrotation 
	JOINT LowerBack
	{
		OFFSET 0.000000 0.000000 0.000000
		CHANNELS 3 Zrotation Yrotation Xrotation
		JOINT Spine
		{
			OFFSET 0.028270 2.035590 -0.193380
			CHANNELS 3 Zrotation Yrotation Xrotation
			JOINT Spine1
			{
				OFFSET 0.056720 2.048850 -0.042750
				CHANNELS 3 Zrotation Yrotation Xrotation
				JOINT Neck
				{
					OFFSET 0.000000 0.000000 0.000000
					CHANNELS 3 Zrotation Yrotation Xrotation
					JOINT Neck1
					{
						OFFSET -0.054170 1.746240 0.172020
						CHANNELS 3 Zrotation Yrotation Xrotation
						JOINT Head
						{
							OFFSET 0.104070 1.761360 -0.123970
							CHANNELS 3 Zrotation Yrotation Xrotation
							End Site
							{
								OFFSET 0.000000 0.000000 0.000000
							}
						}
					}
				}
				JOINT LeftShoulder
				{
					OFFSET 0.000000 0.000000 0.000000
					CHANNELS 3 Zrotation Yrotation Xrotation
					JOINT LeftArm
					{
						OFFSET 3.362410 1.200890 -0.311210
						CHANNELS 3 Zrotation Yrotation Xrotation
						JOINT LeftForeArm
						{
							OFFSET 4.983000 -0.000000 -0.000000
							CHANNELS 3 Zrotation Yrotation Xrotation
							JOINT LeftHand
							{
								OFFSET 3.483560 -0.000000 -0.000000
								CHANNELS 3 Zrotation Yrotation Xrotation
								JOINT LeftFingerBase
								{
									OFFSET 0.000000 0.000000 0.000000
									CHANNELS 3 Zrotation Yrotation Xrotation
									JOINT LeftHandIndex1
									{
										OFFSET 0.715260 -0.000000 -0.000000
										CHANNELS 3 Zrotation Yrotation Xrotation
										End Site
										{
											OFFSET 0.000000 0.000000 0.000000
										}
									}
								}
								JOINT LThumb
								{
									OFFSET 0.000000 0.000000 0.000000
									CHANNELS 3 Zrotation Yrotation Xrotation
									End Site
									{
										OFFSET 0.000000 0.000000 0.000000
									}
								}
							}
						}
					}
				}
				JOINT RightShoulder
				{
					OFFSET 0.000000 0.000000 0.000000
					CHANNELS 3 Zrotation Yrotation Xrotation
					JOINT RightArm
					{
						OFFSET -3.136600 1.374050 -0.404650
						CHANNELS 3 Zrotation Yrotation Xrotation
						JOINT RightForeArm
						{
							OFFSET -5.241900 -0.000000 -0.000000
							CHANNELS 3 Zrotation Yrotation Xrotation
							JOINT RightHand
							{
								OFFSET -3.444170 -0.000000 -0.000000
								CHANNELS 3 Zrotation Yrotation Xrotation
								JOINT RightFingerBase
								{
									OFFSET 0.000000 0.000000 0.000000
									CHANNELS 3 Zrotation Yrotation Xrotation
									JOINT RightHandIndex1
									{
										OFFSET -0.622530 -0.000000 -0.000000
										CHANNELS 3 Zrotation Yrotation Xrotation
										End Site
										{
											OFFSET 0.000000 0.000000 0.000000
										}
									}
								}
								JOINT RThumb
								{
									OFFSET 0.000000 0.000000 0.000000
									CHANNELS 3 Zrotation Yrotation Xrotation
									End Site
									{
										OFFSET 0.000000 0.000000 0.000000
									}
								}
							}
						}
					}
				}
			}
		}
	}
}
}
MOTION
Frames: 6
Frame Time: 0.008333
-19.536969 16.726551 -0.442058 21.669768 85.845835 49.159033 -7.291182 0.134430 -7.946776 -2.263778 0.471596 -4.016787 -5.280269 0.438445 2.081385 10.453309 -6.730812 -8.861562 -1.980476 -0.126983 -0.431384 0.000000 0.000000 0.000000 1.240666 18.441746 3.888206 -39.701711 8.485345 -30.443629 -1.191895 -67.537610 -0.051311 14.653711 0.957100 0.101321 -0.285337 0.195003 0.000000 0.000000 0.000000 0.000000 0.000000 0.000000 0.000000 8.108557 -0.251009 -0.278003 46.776344 39.404301 13.604379 179.867700 81.612882 179.976444 -2.788787 6.057507 -0.163474 0.035143 -0.610098 -0.000000 0.000000 0.000000 0.000000 0.000000 0.000000 0.000000 
-19.344288 16.695239 -0.445924 21.259382 85.755509 48.531877 -7.640730 0.096246 -7.913044 -2.336935 0.463405 -4.004329 -5.301626 0.430090 2.105221 10.808287 -6.807777 -8.856648 -1.943196 -0.124021 -0.431347 0.000000 0.000000 0.000000 1.196039 18.518053 3.873473 -39.975914 8.672032 -30.353312 -1.210612 -67.244431 -0.050371 14.707999 0.954119 0.101810 -0.282843 0.190724 0.000000 0.000000 0.000000 0.000000 0.000000 0.000000 0.000000 8.260722 -0.327886 -0.246397 47.052522 39.299868 14.142341 179.839655 81.217296 179.978944 -2.526453 6.090041 -0.148865 0.033416 -0.613050 -0.000000 0.000000 0.000000 0.000000 0.000000 0.000000 0.000000 
-19.153324 16.667356 -0.449899 20.923995 85.665261 47.989719 -7.971192 0.061726 -7.874631 -2.406203 0.458041 -3.991431 -5.323445 0.424936 2.126347 11.139900 -6.889245 -8.846538 -1.908951 -0.121337 -0.430186 0.000000 0.000000 0.000000 1.116390 18.576239 3.852621 -40.280491 8.752993 -30.230806 -1.234794 -66.864303 -0.049391 14.755114 0.970069 0.104796 -0.279731 0.186065 0.000000 0.000000 0.000000 0.000000 0.000000 0.000000 0.000000 8.404950 -0.415294 -0.216137 47.388594 39.168536 14.705027 179.811136 80.892763 179.981566 -2.255786 6.113914 -0.133458 0.031531 -0.615163 -0.000000 0.000000 0.000000 0.000000 0.000000 0.000000 0.000000 
-18.964632 16.643635 -0.454101 20.604498 85.568210 47.473716 -8.280593 0.032117 -7.833629 -2.470819 0.456473 -3.978263 -5.344723 0.423807 2.146047 11.446000 -6.974091 -8.831290 -1.877981 -0.118960 -0.427796 0.000000 0.000000 0.000000 1.007264 18.621452 3.824823 -40.631741 8.724516 -30.078932 -1.264091 -66.394388 -0.048444 14.805516 1.011497 0.111278 -0.276041 0.181067 0.000000 0.000000 0.000000 0.000000 0.000000 0.000000 0.000000 8.541222 -0.512089 -0.188382 47.780875 39.013826 15.294575 179.783341 80.647141 179.984262 -1.981426 6.127552 -0.117451 0.029547 -0.616310 -0.000000 0.000000 0.000000 0.000000 0.000000 0.000000 0.000000 
-18.777645 16.624641 -0.458890 20.206751 85.457528 46.888372 -8.562294 0.008884 -7.792369 -2.529038 0.459434 -3.965433 -5.364734 0.427212 2.164186 11.723548 -7.060397 -8.809536 -1.850658 -0.116958 -0.423573 0.000000 0.000000 0.000000 0.866335 18.651244 3.789787 -41.037396 8.604263 -29.897817 -1.297450 -65.848259 -0.047578 14.868924 1.087433 0.122456 -0.271860 0.175658 0.000000 0.000000 0.000000 0.000000 0.000000 0.000000 0.000000 8.668868 -0.615280 -0.163182 48.221162 38.840158 15.914029 179.757325 80.487242 179.986975 -1.708565 6.129377 -0.101246 0.027568 -0.616374 -0.000000 0.000000 0.000000 0.000000 0.000000 0.000000 0.000000 
-18.592810 16.610762 -0.464343 19.748384 85.329011 46.245454 -8.818664 -0.009287 -7.748814 -2.580934 0.465857 -3.951700 -5.382127 0.434038 2.183719 11.973900 -7.147365 -8.782309 -1.827028 -0.115318 -0.417774 0.000000 0.000000 0.000000 0.705074 18.678405 3.746862 -41.513434 8.384186 -29.683436 -1.334315 -65.227824 -0.046844 14.951078 1.198061 0.138533 -0.267249 0.170021 0.000000 0.000000 0.000000 0.000000 0.000000 0.000000 0.000000 8.791787 -0.725047 -0.141793 48.695801 38.655584 16.562202 179.734650 80.418120 179.989640 -1.442744 6.119162 -0.085242 0.025647 -0.615278 -0.000000 0.000000 0.000000 0.000000 0.000000 0.000000 0.000000 
